<svg display="none">
    <symbol id="vkontakte" xmlns="http://www.w3.org/2000/svg" viewBox="0 0 23.57 14">
        <g>
            <path d="M23,1C23.2.4,23,0,22.25,0H19.67a1.13,1.13,0,0,0-1.12.73A21.39,21.39,0,0,1,15.38,6c-.6.6-.87.79-1.2.79-.16,0-.4-.19-.4-.73V1C13.78.29,13.59,0,13,0H9a.62.62,0,0,0-.66.59c0,.62.93.77,1,2.52V6.9c0,.84-.15,1-.48,1C8,7.89,5.88,4.68,4.62,1c-.25-.71-.5-1-1.16-1H.88C.15,0,0,.35,0,.73,0,1.41.87,4.8,4.07,9.28,6.2,12.34,9.2,14,11.94,14c1.64,0,1.84-.37,1.84-1V10.68c0-.73.15-.88.67-.88s1,.19,2.57,1.67c1.75,1.75,2,2.53,3,2.53h2.58c.74,0,1.11-.37.89-1.1a11,11,0,0,0-2.17-3c-.6-.71-1.5-1.47-1.78-1.86s-.27-.71,0-1.14C19.56,6.88,22.7,2.45,23,1Z"></path>
        </g>
    </symbol>
    <symbol id="facebook" xmlns="http://www.w3.org/2000/svg" viewBox="0 0 20 20.16">
        <g>
            <path d="M18.9,0H1.1A1.11,1.11,0,0,0,0,1.11V19a1.11,1.11,0,0,0,1.1,1.12h9.58V12.35H8.08v-3h2.6V7.07a3.66,3.66,0,0,1,3.88-4,23,23,0,0,1,2.33.12V5.88H15.3c-1.26,0-1.5.6-1.5,1.48V9.31h3l-.39,3H13.8v7.81h5.1A1.11,1.11,0,0,0,20,19V1.11A1.11,1.11,0,0,0,18.9,0Z"></path>
        </g>
    </symbol>
    <symbol id="twitter" xmlns="http://www.w3.org/2000/svg" viewBox="0 0 20.19 17">
        <g>
            <path d="M17.07,15.93,20.12,1.58A1.33,1.33,0,0,0,19.9.25a.88.88,0,0,0-1-.15L.94,7a1.79,1.79,0,0,0-.82.52.45.45,0,0,0-.07.52.91.91,0,0,0,.67.37L5.33,9.84,16,3.15A.6.6,0,0,1,16.63,3c.07.07.07.15-.08.29L7.93,11.17l-.37,4.76a1.63,1.63,0,0,0,1-.44l2.23-2.16,4.61,3.42C16.33,17.27,16.85,17,17.07,15.93Z"></path>
        </g>
    </symbol>
    <symbol id="yooutube" xmlns="http://www.w3.org/2000/svg" viewBox="0 0 21 15">
        <g>
            <path d="M10.49,0S3.93,0,2.28.44A2.72,2.72,0,0,0,.43,2.34,29.09,29.09,0,0,0,0,7.5a28.81,28.81,0,0,0,.43,5.15,2.7,2.7,0,0,0,1.85,1.9c1.66.45,8.21.45,8.21.45s6.58,0,8.23-.44a2.64,2.64,0,0,0,1.84-1.89A28.29,28.29,0,0,0,21,7.52a27.69,27.69,0,0,0-.44-5.18A2.63,2.63,0,0,0,18.72.46C17.07,0,10.49,0,10.49,0ZM8.41,4.29,13.87,7.5,8.41,10.71V4.29Z"></path>
        </g>
    </symbol>
    <symbol id="instagram" xmlns="http://www.w3.org/2000/svg" viewBox="0 0 20.21 20.21">
        <g>
            <path d="M10.11,1.82c2.69,0,3,0,4.08.06a5.43,5.43,0,0,1,1.88.35A3.1,3.1,0,0,1,17.23,3,3.14,3.14,0,0,1,18,4.15,5.36,5.36,0,0,1,18.33,6c.05,1.07.06,1.39.06,4.09s0,3-.06,4.08A5.43,5.43,0,0,1,18,16.07,3.29,3.29,0,0,1,16.07,18a5.43,5.43,0,0,1-1.88.35c-1.07.05-1.38.06-4.08.06s-3,0-4.09-.06A5.36,5.36,0,0,1,4.15,18,3.14,3.14,0,0,1,3,17.23a3.1,3.1,0,0,1-.75-1.16,5.43,5.43,0,0,1-.35-1.88c0-1.07-.06-1.39-.06-4.08s0-3,.06-4.09a5.36,5.36,0,0,1,.35-1.87A3.25,3.25,0,0,1,4.15,2.23,5.36,5.36,0,0,1,6,1.88c1.07,0,1.39-.06,4.09-.06m0-1.82C7.36,0,7,0,5.94.06A7.38,7.38,0,0,0,3.49.53,4.82,4.82,0,0,0,1.7,1.7,4.82,4.82,0,0,0,.53,3.49,7.38,7.38,0,0,0,.06,5.94C0,7,0,7.36,0,10.11s0,3.09.06,4.16a7.5,7.5,0,0,0,.47,2.46A5,5,0,0,0,1.7,18.52a4.92,4.92,0,0,0,1.79,1.16,7.38,7.38,0,0,0,2.45.47c1.08.05,1.42.06,4.17.06s3.09,0,4.16-.06a7.5,7.5,0,0,0,2.46-.47,5.11,5.11,0,0,0,2.95-2.95,7.5,7.5,0,0,0,.47-2.46c.05-1.07.06-1.42.06-4.16s0-3.09-.06-4.17a7.38,7.38,0,0,0-.47-2.45A4.92,4.92,0,0,0,18.52,1.7,5,5,0,0,0,16.73.53,7.5,7.5,0,0,0,14.27.06C13.2,0,12.85,0,10.11,0Zm0,4.92a5.19,5.19,0,1,0,5.19,5.19A5.19,5.19,0,0,0,10.11,4.92Zm0,8.56a3.37,3.37,0,1,1,3.37-3.37A3.37,3.37,0,0,1,10.11,13.48Zm6.6-8.77A1.21,1.21,0,1,1,15.5,3.5,1.21,1.21,0,0,1,16.71,4.71Z"></path>
        </g>
    </symbol>
    <symbol id="email" xmlns="http://www.w3.org/2000/svg" viewBox="0 0 512 480">
        <path d="M467,61H45C20.218,61,0,81.196,0,106v300c0,24.72,20.128,45,45,45h422c24.72,0,45-20.128,45-45V106
			C512,81.28,491.872,61,467,61z M460.786,91L256.954,294.833L51.359,91H460.786z M30,399.788V112.069l144.479,143.24L30,399.788z
			 M51.213,421l144.57-144.57l50.657,50.222c5.864,5.814,15.327,5.795,21.167-0.046L317,277.213L460.787,421H51.213z M482,399.787
			L338.213,256L482,112.212V399.787z"/>
    </symbol>
    <symbol id="phone" xmlns="http://www.w3.org/2000/svg" viewBox="0 0 505.709 500">
        <g>
            <path d="M427.554,71.862c-99.206-95.816-256.486-95.816-355.692,0c-98.222,101.697-95.405,263.762,6.292,361.984
			c99.206,95.816,256.486,95.816,355.692,0C532.068,332.15,529.251,170.084,427.554,71.862z M421.814,421.814l-0.085-0.085
			c-93.352,93.267-244.636,93.198-337.903-0.154S-9.372,176.94,83.98,83.673s244.636-93.198,337.903,0.153
			c44.799,44.84,69.946,105.643,69.905,169.028C491.792,316.225,466.622,377.002,421.814,421.814z"/>
            <path d="M396.641,325.729l-47.957-47.787c-10.884-10.91-28.552-10.931-39.462-0.047c-0.016,0.016-0.031,0.031-0.047,0.047
			l-27.477,27.477c-2.079,2.084-5.355,2.372-7.765,0.683c-15.039-10.51-29.117-22.333-42.069-35.328
			c-11.6-11.574-22.271-24.042-31.915-37.291c-1.748-2.38-1.494-5.68,0.597-7.765l28.16-28.16c10.872-10.893,10.872-28.531,0-39.424
			l-47.957-47.957c-11.051-10.565-28.458-10.565-39.509,0l-15.189,15.189c-22.939,22.681-31.128,56.359-21.163,87.04
			c7.436,22.447,17.947,43.755,31.232,63.317c11.96,17.934,25.681,34.628,40.96,49.835c16.611,16.73,35.011,31.581,54.869,44.288
			c21.83,14.245,45.799,24.904,70.997,31.573c6.478,1.597,13.126,2.399,19.797,2.389c22.871-0.14,44.752-9.346,60.843-25.6
			l13.056-13.056C407.513,354.26,407.513,336.622,396.641,325.729z M384.557,353.514c-0.011,0.011-0.022,0.023-0.034,0.034
			l0.085-0.256l-13.056,13.056c-16.775,16.987-41.206,23.976-64.427,18.432c-23.395-6.262-45.635-16.23-65.877-29.525
			c-18.806-12.019-36.234-26.069-51.968-41.899c-14.477-14.371-27.483-30.151-38.827-47.104
			c-12.408-18.242-22.229-38.114-29.184-59.051c-7.973-24.596-1.366-51.585,17.067-69.717l15.189-15.189
			c4.223-4.242,11.085-4.257,15.326-0.034c0.011,0.011,0.023,0.022,0.034,0.034l47.957,47.957
			c4.242,4.223,4.257,11.085,0.034,15.326c-0.011,0.011-0.022,0.022-0.034,0.034l-28.16,28.16
			c-8.08,7.992-9.096,20.692-2.389,29.867c10.185,13.978,21.456,27.131,33.707,39.339c13.659,13.718,28.508,26.197,44.373,37.291
			c9.167,6.394,21.595,5.316,29.525-2.56l27.221-27.648c4.223-4.242,11.085-4.257,15.326-0.034c0.011,0.011,0.022,0.022,0.034,0.034
			l48.043,48.128C388.765,342.411,388.78,349.272,384.557,353.514z"/>
        </g>
    </symbol>
    <symbol id="burger" xmlns="http://www.w3.org/2000/svg" viewBox="0 0 40 26">
        <rect class="btn-burger__icon_1" width="40" height="3" rx="3" ry="3"/>
        <rect class="btn-burger__icon_2" width="40" height="3" y="10" rx="3" ry="3"/>
        <rect class="btn-burger__icon_3" width="40" height="3" y="20" rx="3" ry="3"/>
    </symbol>
</svg>
